# xmcd
# 
# Track frame offsets:
#     182
#     14372
#     31205
#     42695
#     62090
#     81502
#     96685
#     110187
#     123045
#     138087
#     152077
#     167870
#     182062
#     196977
#     214930
# 
# Disc length: 3065
# 
# Revision: 3
# Processed by: cddbd v1.5.2PL0 Copyright (c) Steve Scherf et al.
# Submitted via: BonkEnc v1.0.8
# 
DISCID=db0bf70f
DTITLE=Tião Carreiro and Pardinho - Som Da Terra Volume 1
DYEAR=0
DGENRE=Country
TTITLE0=Oi Paixão
TTITLE1=Rio De Lágrimas
TTITLE2=Osso Duro De Roer
TTITLE3=Golpe De Mestre
TTITLE4=Hoje Eu Não Posso Ir
TTITLE5=A Vaca Já Foi Pro Brejo
TTITLE6=Pagode Em Brasilia
TTITLE7=Homem Sem Rumo
TTITLE8=Felicidade
TTITLE9=Amargurado
TTITLE10=Rancho Do Vale
TTITLE11=Cochilou O Cachimbo Cai
TTITLE12=Pai João
TTITLE13=Boiadeiro De Palavra
TTITLE14=Estrela De Ouro
EXTD=
EXTT0=
EXTT1=
EXTT2=
EXTT3=
EXTT4=
EXTT5=
EXTT6=
EXTT7=
EXTT8=
EXTT9=
EXTT10=
EXTT11=
EXTT12=
EXTT13=
EXTT14=
PLAYORDER=
